PathFileType	4	(X/Y/Z)	c:/Users/goper/Files/vsCode/490R/osim_files/C04/C04_SSWS_05.trc
DataRate	CameraRate	NumFrames	NumMarkers	Units                	OrigDataRate	OrigDataStartFrame	OrigNumFrames
250.00	250.00	10	36	mm	250.0	1761	3521
                Frame#	Time	LPSIS			LASIS			LTH1			LTH2			LTH3			LTH4			LLFE			LMFE			LSH1			LSH2			LSH3			LSH4			LLMAL			LMMAL			LCAL			LMTP5			LTOE			LMTP1			RPSIS			RASIS			RTH1			RTH2			RTH3			RTH4			RLFE			RMFE			RSH1			RSH2			RSH3			RSH4			RLMAL			RMMAL			RCAL			RMTP1			RTOE			RMTP5		
		X1	Y1	Z1	X2	Y2	Z2	X3	Y3	Z3	X4	Y4	Z4	X5	Y5	Z5	X6	Y6	Z6	X7	Y7	Z7	X8	Y8	Z8	X9	Y9	Z9	X10	Y10	Z10	X11	Y11	Z11	X12	Y12	Z12	X13	Y13	Z13	X14	Y14	Z14	X15	Y15	Z15	X16	Y16	Z16	X17	Y17	Z17	X18	Y18	Z18	X19	Y19	Z19	X20	Y20	Z20	X21	Y21	Z21	X22	Y22	Z22	X23	Y23	Z23	X24	Y24	Z24	X25	Y25	Z25	X26	Y26	Z26	X27	Y27	Z27	X28	Y28	Z28	X29	Y29	Z29	X30	Y30	Z30	X31	Y31	Z31	X32	Y32	Z32	X33	Y33	Z33	X34	Y34	Z34	X35	Y35	Z35	X36	Y36	Z36

1761	7.04000	539.86627	969.05316	301.01993	376.51633	948.56250	388.92075	520.90503	718.31396	446.05997	523.47095	658.56012	429.35367	454.60751	720.81097	449.16547	445.93726	659.25555	430.31320	524.47552	454.08560	394.85458	528.92719	446.40265	278.09506	605.59473	368.58597	400.83554	627.57434	325.87869	395.33957	555.03558	348.33340	396.98108	0.00000	0.00000	0.00000	677.46985	92.20614	365.00949	675.66034	111.70794	271.39899	749.51080	77.63500	318.38623	554.91113	23.87399	362.65134	533.83704	47.58502	306.69366	569.89319	23.44487	256.11639	535.41388	966.62915	226.49466	363.05234	938.78754	177.89232	419.05496	705.29443	96.36535	394.08524	648.61121	106.14487	367.72427	740.91547	96.09882	0.00000	0.00000	0.00000	248.70917	480.81067	143.89308	250.83658	475.74374	260.76031	267.16299	339.22415	126.57442	0.00000	0.00000	0.00000	208.92987	360.48221	128.24492	0.00000	0.00000	0.00000	152.54697	98.08416	149.52432	145.96664	115.19453	239.40433	191.40987	44.77149	199.87474	9.06241	120.39954	230.73349	-7.88821	149.29332	185.98917	9.48789	106.15900	127.23106
1762	7.04400	535.40155	968.49738	300.45883	372.38940	948.15979	388.87476	517.27771	718.20581	445.55722	520.01508	658.40356	428.84952	448.92932	718.89215	446.81613	442.47467	658.86334	430.22067	521.59778	453.91293	394.69061	525.96021	446.21832	277.87695	602.59833	368.60358	400.52261	625.42371	326.35928	395.24905	552.68060	348.31262	396.87717	0.00000	0.00000	0.00000	676.96478	92.70760	365.02267	675.11017	112.35049	271.47229	749.12311	78.74808	318.47803	554.88184	23.81968	362.70242	533.78046	47.48891	306.72897	569.86566	23.43134	256.10110	530.85889	966.20123	225.92110	358.45987	938.67133	177.66679	414.05914	705.21094	95.67735	389.28641	648.42670	105.41282	362.62997	740.88135	96.09394	0.00000	0.00000	0.00000	244.89572	480.22147	143.45825	247.04504	474.78119	260.44318	262.55298	338.48300	126.30687	0.00000	0.00000	0.00000	204.38344	359.99893	128.39699	0.00000	0.00000	0.00000	146.75365	97.87294	149.94563	140.51195	115.26685	239.90005	185.33510	44.42327	200.37648	3.23988	120.96754	231.35957	-13.42610	149.97232	186.57822	3.59126	106.45844	127.72762
1763	7.04800	530.97449	968.00415	299.91153	368.16370	947.70319	388.64978	513.60504	718.08630	444.99347	516.48816	658.27588	428.42142	447.50256	720.04047	448.76352	438.99084	658.30243	430.03436	518.61395	453.70297	394.49829	522.86530	446.02103	277.67569	600.09418	368.93805	400.45203	623.18158	326.80838	395.17166	550.23755	348.18872	396.76318	0.00000	0.00000	0.00000	676.44452	93.30123	365.13818	674.42169	113.04171	271.56512	748.80432	79.99103	318.63068	554.94781	23.80893	362.80762	533.71484	47.34911	306.80972	569.83722	23.44456	256.10928	526.33856	965.77185	225.35954	353.75858	938.54694	177.59328	409.08224	705.14569	95.01116	384.53320	648.25305	104.62506	357.43823	740.83752	96.09595	0.00000	0.00000	0.00000	240.97522	479.60355	143.04576	243.49753	474.12109	260.22086	257.83466	337.68668	126.17075	0.00000	0.00000	0.00000	199.88777	359.51105	128.59221	0.00000	0.00000	0.00000	141.20013	97.60616	150.35519	135.20634	115.12233	240.21458	179.67358	44.07244	200.86322	-1.70163	122.05176	232.53740	-18.75099	150.31593	187.21019	-1.82942	106.67892	128.28210
1764	7.05200	526.54144	967.50989	299.32196	363.96124	947.41119	388.57092	509.90143	717.93280	444.43927	512.99048	658.14264	427.91663	443.81555	719.62500	448.41739	435.55331	657.89667	429.87021	515.63092	453.56482	394.31177	519.72028	445.79684	277.48227	597.42395	369.27106	400.35858	620.90869	327.32886	395.09625	550.04980	350.09167	398.91165	0.00000	0.00000	0.00000	675.93732	93.95334	365.24878	673.69965	113.73073	271.68936	748.23926	81.00215	318.69910	554.92462	23.75004	362.81519	533.66669	47.20715	306.89819	569.79810	23.48613	256.12625	521.67651	965.38239	224.82155	349.20886	938.43726	177.32996	404.16263	705.09412	94.28860	379.89182	648.19684	103.88791	352.15485	740.78442	96.10349	0.00000	0.00000	0.00000	237.05107	478.94452	142.70982	239.89423	473.43344	260.04468	253.39970	337.08817	126.02770	0.00000	0.00000	0.00000	195.44102	359.01590	128.81911	0.00000	0.00000	0.00000	135.93869	97.24162	150.74950	130.35739	114.96757	240.64603	174.36505	43.68040	201.28613	-6.87118	121.69289	232.83995	-23.65602	150.54478	188.01627	-6.99862	106.80901	128.86226
1765	7.05600	521.96564	967.03174	298.74503	359.48471	946.94165	388.20303	506.11646	717.76587	443.83514	509.36520	657.95575	427.41599	440.21030	719.22949	448.01587	432.05215	657.51282	429.71591	512.54395	453.37302	394.07437	516.46222	445.54803	277.28149	595.39966	370.02249	400.40683	618.57703	327.87219	395.03229	545.47577	348.19388	396.70932	561.75104	304.81381	392.28140	675.32214	94.63938	365.30493	673.04852	114.50664	271.77362	747.66547	82.22654	318.82233	554.88434	23.70973	362.81125	533.59003	47.04483	306.97696	569.77307	23.51545	256.12918	517.07245	965.03619	224.18385	344.44022	938.34216	177.26318	399.14157	705.02136	93.60348	375.06647	648.10498	103.14317	346.78568	740.72260	96.11523	0.00000	0.00000	0.00000	233.22374	478.45871	142.39920	235.91539	472.65402	259.77658	248.92741	336.52734	125.99306	0.00000	0.00000	0.00000	191.04134	358.51086	129.06627	0.00000	0.00000	0.00000	131.12303	96.94269	151.06285	125.69950	114.67404	241.00586	169.61417	43.38281	201.57272	-11.34365	121.81742	233.62408	-28.36027	150.56038	188.76996	-11.93100	106.67304	129.42188
1766	7.06000	517.45905	966.61536	298.13284	355.31909	946.63788	388.09369	502.41446	717.74493	443.25391	505.68848	657.80048	426.88181	436.60181	718.98163	447.80270	428.46426	657.15021	429.51135	509.35941	453.13773	393.86755	513.10303	445.27255	277.09540	592.70941	370.40311	400.28320	616.16864	328.43881	394.97787	542.87830	348.25912	396.54987	559.55292	304.96710	392.22946	674.72766	95.34955	365.42099	672.23962	115.31733	272.00732	747.19965	83.53778	318.90164	554.84186	23.71357	362.81232	533.54156	46.92176	307.02875	569.73798	23.55743	256.14325	512.42920	964.66827	223.61140	339.75119	938.15619	177.12479	394.12634	704.94763	92.89874	370.22153	647.98413	102.42577	341.33655	740.65253	96.12984	0.00000	0.00000	0.00000	229.48065	477.90793	142.16196	232.27689	472.22687	259.60596	244.58182	335.97751	125.94453	0.00000	0.00000	0.00000	186.68687	357.99326	129.32222	0.00000	0.00000	0.00000	126.59826	96.62897	151.32292	121.37282	114.24198	241.40840	165.15622	42.98538	201.78601	-16.03477	122.44521	234.72415	-32.78488	150.33902	189.60573	-16.52660	106.36463	130.05067
1767	7.06400	512.89349	966.19403	297.48969	350.89313	946.25293	387.94669	498.54898	717.63733	442.52481	502.04990	657.66559	426.30365	432.74112	718.64154	447.35251	424.77637	656.74969	429.12289	506.14224	453.02292	393.68097	509.67435	444.94058	276.92926	589.30457	370.39194	399.97800	613.68073	329.01471	394.88089	540.14801	348.13425	396.35538	557.18671	305.11655	392.10458	674.08698	96.14761	365.44147	671.52008	116.16610	272.06604	746.68762	84.97260	319.05161	554.81854	23.72065	362.79337	533.47565	46.80964	307.04071	569.68591	23.59463	256.16345	507.68890	964.30951	222.99103	335.02063	937.91443	176.98180	389.07422	704.90881	92.23823	365.27219	647.88562	101.75413	335.81332	740.57458	96.14596	0.00000	0.00000	0.00000	225.24239	477.23663	141.88544	228.38132	471.75851	259.40430	240.28490	335.46274	125.93875	0.00000	0.00000	0.00000	182.37579	357.46054	129.57552	0.00000	0.00000	0.00000	122.10005	96.11522	151.67468	117.24909	113.63802	241.66093	160.99408	42.51735	201.86891	-20.08737	121.90856	235.55963	-36.97868	149.87454	190.49490	-20.15968	106.05880	130.92741
1768	7.06800	508.32346	965.80219	296.85068	346.55914	945.89343	387.63037	494.71927	717.60126	441.84888	498.35361	657.58337	425.68948	428.93771	718.36047	446.87750	421.16153	656.51343	428.95728	502.88531	452.86252	393.48666	506.06821	444.56274	276.80231	587.11572	371.19751	400.01944	611.15253	329.64264	394.81720	537.40802	348.19431	396.14572	554.85309	305.30121	392.09146	673.38934	96.98015	365.53757	670.60101	116.94274	272.29132	746.13165	86.46957	319.20526	554.81293	23.76378	362.81317	533.44623	46.74762	307.03366	569.65009	23.62110	256.14978	503.02011	964.05536	222.30194	330.22147	937.67853	176.87325	384.05341	704.83350	91.60958	360.39023	647.80597	101.14172	330.22177	740.48944	96.16226	0.00000	0.00000	0.00000	221.03217	476.62018	141.77985	224.42003	471.38766	259.14688	236.02789	334.94608	125.96233	0.00000	0.00000	0.00000	178.10620	356.91000	129.81474	0.00000	0.00000	0.00000	117.86335	95.58814	151.91928	113.50859	113.03201	241.97081	157.54414	42.13282	201.89743	-23.86720	120.96455	236.19182	-41.01607	149.20737	191.40283	-25.15264	104.92755	131.07805
1769	7.07200	503.68475	965.39569	296.16315	342.11700	945.53406	387.41617	490.77530	717.48907	441.10422	494.57321	657.46082	425.04605	425.17490	718.19983	446.49387	417.48413	656.31360	428.72339	498.32339	452.00107	392.58826	502.47754	444.18500	276.62878	584.16931	371.66013	399.84360	608.62561	330.27039	394.74411	534.90027	348.38031	396.16379	552.49524	305.60291	392.02933	672.74951	97.87909	365.61948	669.81189	117.83530	272.50027	745.48328	87.85294	319.28473	554.77197	23.78517	362.73138	533.45563	46.70234	306.99231	569.62762	23.64031	256.12354	498.31384	963.73987	221.66861	325.50748	937.61511	176.48488	378.49026	704.42682	91.11382	355.47675	647.66821	100.62498	324.56778	740.39746	96.17738	0.00000	0.00000	0.00000	217.01802	476.15103	141.59276	220.67435	471.16000	259.01218	231.83723	334.41132	126.01719	0.00000	0.00000	0.00000	173.87631	356.33908	130.02841	0.00000	0.00000	0.00000	114.10835	94.99819	152.18721	110.34718	112.43528	242.24084	153.69365	41.32568	201.76186	-27.23559	120.00994	237.04573	-44.53635	148.29149	192.33295	-28.92566	104.78001	132.73766
1770	7.07600	498.96054	965.04327	295.54034	337.72598	945.17371	387.12827	486.77527	717.36859	440.35587	490.76212	657.35187	424.37314	421.18222	717.92480	446.05801	413.73801	655.97473	428.33081	496.27112	452.60303	393.09973	498.82806	443.77341	276.44745	580.69513	371.70908	399.58698	605.93616	330.86832	394.65714	532.03418	348.41287	396.07755	550.06793	305.77753	392.08948	671.63922	98.68604	365.00021	668.86450	118.65961	272.69080	744.90802	89.40905	319.44284	554.73059	23.77030	362.68741	533.45850	46.58180	306.96973	569.56293	23.62262	256.11893	493.48917	963.40857	221.00996	320.59299	937.49738	176.15134	373.89630	704.65747	90.37413	350.56241	647.52722	100.15268	318.85712	740.29907	96.19000	0.00000	0.00000	0.00000	212.73915	475.62000	141.57465	216.67117	470.83041	258.87457	227.78557	333.97794	126.04739	0.00000	0.00000	0.00000	169.68423	355.74512	130.20509	0.00000	0.00000	0.00000	110.77299	94.34721	152.39424	107.05932	111.51488	242.61539	150.72816	40.76576	201.73563	-30.35971	118.87034	237.89542	-48.02732	147.20309	193.31398	-32.19294	103.98210	133.75165
